<?xml version="1.0" encoding="utf-8"?>
<!-- Generator: Adobe Illustrator 16.0.0, SVG Export Plug-In . SVG Version: 6.00 Build 0)  -->
<!DOCTYPE svg PUBLIC "-//W3C//DTD SVG 1.1//EN" "http://www.w3.org/Graphics/SVG/1.1/DTD/svg11.dtd">
<svg version="1.1" id="Layer_1" xmlns="http://www.w3.org/2000/svg" xmlns:xlink="http://www.w3.org/1999/xlink" x="0px" y="0px"
	 width="792px" height="792px" viewBox="0 0 792 792" enable-background="new 0 0 792 792" xml:space="preserve">
<g>
	<path d="M0.059,259.743c0-1.316,0-2.633,0-3.949c1.37-2.594,2.863-5.131,4.086-7.792c2.663-5.796,4.971-11.764,7.86-17.439
		c1.411-2.771,5.679-5.36,5.324-7.47c-0.593-3.511-5.789-0.935-8.393-3.057c0.813-2.346,2.97-3.103,4.887-3.75
		c8.19-2.765,15.078-7.955,22.352-12.286c7.123-4.241,13.911-9.178,19.632-15.515c11.375-12.597,21.292-26.312,30.913-40.194
		c4.756-6.861,9.14-14.11,11.614-22.513c1.615-5.486,6.031-10.161,9.258-15.156c7.192-11.134,17.85-18.64,28.134-26.481
		c1.838-1.402,4.051-2.263,4.595-4.723c0.703-3.179-3.137-2.146-4.5-5.18c19.971-0.06,39.1-5.589,59.285-2.121
		c-4.11-6.624-10.63-8.488-17.083-10.637c8.495-2.792,16.746-1.919,24.144,2.051c11.032,5.923,22.432,5.669,34.015,3.482
		c5.146-0.972,9.862-1.449,14.883,0.561c3.641,1.458,7.665,1.515,9.569-3.011c1.143-2.717,2.295-0.912,3.346-0.314
		c3.367,1.914,6.458,4.485,10.02,5.856c12.968,4.993,26.247,9.179,38.47,15.994c5.224,2.912,10.07,6.06,13.38,11.259
		c1.395,2.189,2.046,4.937,4.325,6.507c7.029,4.845,11.624,12.293,18.552,17.257c2.682,1.922,4.672,4.864,8.5,4.971
		c0.796,0.022,1.601,0.511,1.975-0.385c0.185-0.441-0.129-1.307-0.502-1.728c-3.25-3.673-6.003-7.759-10.176-10.631
		c-5.019-3.454-9.845-7.22-13.41-12.312c-2.629-3.754-2.271-4.756,2.126-5.135c1.819-0.156,3.613-0.281,5.277-1.042
		c10.903-4.985,22.578-7.909,32.821-14.816c10.735-7.241,23.698-7.806,36.412-7.789c5.14,1.792,9.203,5.328,13.697,8.208
		c7.878,5.05,15.302,10.529,22.122,16.978c6.299,5.957,12.615,12.258,19.973,16.651c12.887,7.693,24.657,16.547,34.657,27.642
		c2.04,2.264,5.229,3.561,6.224,6.687c2.145,6.739,7.378,11.445,11.095,17.146c4.208,6.458,8.426,12.912,12.815,19.247
		c3.733,5.391,4.038,12.011,6.766,17.766c5.282,11.147,11.049,22.04,17.049,32.804c3.492,6.266,6.329,13.459,11.39,18.16
		c7.636,7.097,13.011,15.575,18.41,24.081c3.63,5.717,7.819,11.158,10.465,17.52c1.595,3.831,4.235,6.09,8.976,6.281
		c3.727,0.151,7.595,0.953,11.051,3.297c3.323,2.255,7.165,3.89,10.97,5.265c11.626,4.201,15.944,13.996,10.396,24.717
		c-7.059,13.635-6.951,27.095,0.428,40.513c0.633,1.151,0.775,2.103-0.102,3.131c-5.011,5.875-10.748,11.05-18.744,11.542
		c-7.812,0.481-15.803,0.496-23.527-0.6c-11.479-1.627-22.072-6.56-32.949-10.438c-4.589-1.636-8.805-4.727-13.782-4.917
		c-8.619-0.331-17.02-3.068-25.823-1.772c-4.118,0.606-8.475-0.617-12.671-0.305c-6.465,0.481-12.879,1.594-19.321,2.397
		c-18.304,2.279-36.506,5.082-53.662,12.27c-9.654,4.044-20.094,7.181-27.417,15.011c-7.797,8.334-14.783,17.504-20.757,27.275
		c-9.752,15.95-18.741,32.428-30.318,47.141c-6.702,8.517-12.613,17.972-22.229,23.873c-2.388,1.466-5.383,3.477-4.581,6.271
		c0.793,2.762,4.354,1.435,6.656,1.373c3.232-0.087,4.125,1.215,3.492,4.125c-3.02,13.865-6.022,27.739-13.81,39.951
		c-1.44,2.258-0.89,3.32,1.745,3.433c0.968,0.042,1.932,0.146,2.782,0.213c0.641,1.289-0.194,2.113-0.577,2.933
		c-9.274,19.861-23.181,35.518-42.196,46.598c-6.63,3.863-13.691,6.371-20.886,8.99c-7.499,2.731-14.944,6.381-21.959,10.932
		c-6.521,4.231-13.641,7.861-20.256,12.15c-2.717,1.762-5.037,4.126-7.599,6.139c-7.89,6.194-15.083,13.073-21.119,21.126
		c-6.261,8.353-10.655,18.444-21.175,22.864c-0.896,0.377-1.89,0.815-1.594,2.111c0.286,1.251,1.109,2.064,2.385,2.117
		c2.299,0.095,4.607,0.126,6.906,0.039c2.779-0.104,3.749,0.405,2.683,3.632c-2.293,6.941-4.008,14.074-5.959,21.129
		c-0.016,5.894-0.031,11.788-0.047,17.681c-0.41,6.747,0.204,13.321,3.807,19.24c4.855,7.977,10.983,14.893,17.95,21.093
		c2.101,1.869,3.874,4.006,3.917,7.059c-2.029,4.341-6.196,4.576-10.062,4.875c-6.875,0.528-13.854,0.123-20.659,1.06
		c-21.145,2.906-42.326,2.613-63.471,0.878c-13.402-1.1-26.655-3.96-40.228-2.877c-5.243,0.418-10.545,0.594-15.755-0.255
		c-6.35-1.033-7.564-3.584-5.281-9.517c5.607-14.567,11.237-29.127,15.791-44.074c0.361-1.187,0.421-2.262-0.279-3.277
		c-1.283-1.863-0.323-3.264,0.678-4.883c5.779-9.348,9.333-19.717,12.52-30.085c2.589-8.428,3.651-17.329,5.326-26.03
		c2.215-11.507,3.176-23.386,7.694-34.261c4.137-9.958,8.917-19.705,14.573-28.95c3.37-5.507,2.823-6.783-3.82-7.421
		c4.279-7.263,7.169-15.026,10.827-22.417c5.775-11.666,7.435-23.978,7.243-36.822c-0.192-12.951-1.137-26.1,0.673-38.818
		c2.134-14.996,6.625-29.693,12.805-43.71c0.47-1.066,1.728-2.301,0.436-3.583c-1.22-1.213-2.457-0.304-3.592,0.276
		c-2.626,1.341-5.196,2.793-7.83,4.116c-2.691,1.354-5.402,2.814-8.957,1.428c6.074-6.771,10.71-14.061,14.356-21.96
		c5.9-12.785,10.134-26.332,17.588-38.411c0.499-0.807,0.847-1.89,0.8-2.82c-0.304-5.963,3.815-10.027,6.199-14.835
		c2.167-4.371,5.291-8.166,7.788-12.231c5.68-9.247,10.02-19.327,14.764-29.136c2.686-5.554,1.969-11.971,4.35-17.699
		c2.578-6.203,6.574-11.258,10.452-16.196c-4.729-4.887-9.312-1.619-13.828,1.699c-1.582,1.163-3.121,2.447-4.443,3.893
		c-5.624,6.144-13.476,10.491-15.068,20.103c-2.429-2.482-2.283-4.951-3.042-7.078c-1.462-4.101-2.879-4.461-5.54-1.128
		c-2.56,3.207-5.365,6.353-7.21,9.961c-3.032,5.928-9.293,9.871-10.269,17.023c-0.123,0.901-0.781,1.731-2.106,1.601
		c-1.426-0.141-1.342-1.117-1.516-2.07c-0.675-3.712-1.101-7.498-2.626-10.993c-1.057-2.417-2.167-4.199-4.798-1.035
		c-2.644,3.18-6.286,5.615-9.422,8.061c-7.659,5.971-14.095,12.793-19.475,20.671c-4.379,6.411-9.791,12.211-11.625,20.228
		c-0.863,3.77-3.027,7.246-5.312,10.485c-0.575,0.815-1.229,1.74-2.34,1.029c-0.392-0.25-0.723-1.43-0.509-1.668
		c2.891-3.208,0.324-6.431,0.08-9.612c-0.219-2.855-2.26-5.412-4.508-5.728c-1.941-0.273-2.606,3.015-2.849,5.059
		c-1.198,10.068-6.073,19.002-8.947,28.547c-1.42,4.716-3.007,9.544-4.53,15.673c-2.352-5.373-2.428-9.775-3.149-14.043
		c-1.581-9.354-1.03-18.889-2.847-28.261c-3.467-17.88-12.016-34.179-15.012-52.334c-2.205-13.365-0.063-25.972,1.584-38.827
		c0.373-2.91,0.462-4.389-2.334-5.835c-2.118-1.094-5.13-1.955-4.192-5.832c0.489-2.021-1.493-3.02-3.263-2.425
		c-4.719,1.587-4.762-1.234-4.5-4.445c0.305-3.747-0.67-6.903-2.915-10.088C11.872,260.282,6.564,258.745,0.059,259.743z
		 M493.71,326.763c4.681-0.774,7.923-3.268,10.823-6.515c3.806-4.259,5.07-9.577,7.234-14.596
		c2.891-6.704,1.381-13.133,0.332-19.674c-0.851-5.303-2.712-10.051-8.295-12.301c-1.707-0.688-2.548-2.348-3.595-3.858
		c-2.886-4.161-6.081-8.107-9.198-12.108c-8.996-11.556-22.472-15.654-36.371-10.808c-11.746,4.096-21.538,11.267-28.848,21.191
		c-7.291,9.898-14.226,20.075-15.249,33.16c-0.35,4.467,0.75,5.382,4.465,4.872c12.347-1.692,24.753-2.599,37.192-1.897
		c10.956,0.617,20.266-3.488,28.661-9.694c5.797-4.285,11.984-7.244,18.828-9.085c7.765-2.089,7.727-2.06,6.93,5.879
		c-0.263,2.606-0.099,5.259-0.054,7.89c0.131,7.488-2.186,14.14-6.789,20.009C497.789,321.766,495.735,324.253,493.71,326.763z
		 M297.361,209.126c-2.444,0.298-4.897,0.531-7.328,0.907c-6.39,0.989-11.673,2.999-14.665,9.826
		c-1.308,2.987-1.443,7.23-4.357,8.993c-7.776,4.704-9.581,13.524-13.712,20.394c-3.275,5.444-5.961,11.398-9.938,16.561
		c-6.588,8.551-15.255,14.667-25.118,18.232c-9.41,3.403-19.068,5.899-27.265,11.982c-1.383,1.026-4.087,1.54-3.11,3.546
		c0.549,1.131,2.871,1.789,5.35,1.196c10.709-2.561,19.584-9.8,30.528-11.61c0.604-0.101,1.121-0.659,1.708-0.942
		c10.251-4.948,17.45-13.346,25.031-21.465c3.544-3.795,3.355-8.688,5.831-12.781c5.5-9.093,13.453-16.385,18.036-26.156
		c4.654-9.924,11.82-12.904,22.732-10.776c1.254,0.245,2.667,0.252,3.899-0.058c3.612-0.91,7.159-0.624,10.762-0.018
		c1.6,0.269,3.278,0.273,4.9,0.146c1.239-0.097,2.231-0.957,1.996-2.305c-0.177-1.009-1.08-1.624-2.229-1.501
		c-3.333,0.358-6.536-0.559-9.785-0.987C306.115,211.716,302.278,208.179,297.361,209.126z"/>
	<path fill-rule="evenodd" clip-rule="evenodd" fill="none" d="M0.059,259.743c6.505-0.998,11.812,0.539,15.853,6.275
		c2.245,3.186,3.22,6.342,2.915,10.088c-0.262,3.211-0.219,6.033,4.5,4.445c1.77-0.595,3.752,0.404,3.263,2.425
		c-0.938,3.877,2.074,4.738,4.192,5.832c2.797,1.446,2.707,2.926,2.334,5.835c-1.647,12.855-3.789,25.462-1.584,38.827
		c2.996,18.155,11.545,34.454,15.012,52.334c1.817,9.372,1.267,18.907,2.847,28.261c0.721,4.268,0.797,8.67,3.149,14.043
		c1.523-6.129,3.109-10.957,4.53-15.673c2.874-9.545,7.749-18.479,8.947-28.547c0.243-2.044,0.908-5.332,2.849-5.059
		c2.248,0.316,4.289,2.873,4.508,5.728c0.245,3.181,2.812,6.404-0.08,9.612c-0.214,0.238,0.117,1.418,0.509,1.668
		c1.111,0.711,1.765-0.214,2.34-1.029c2.285-3.239,4.449-6.715,5.312-10.485c1.834-8.017,7.246-13.817,11.625-20.228
		c5.38-7.877,11.816-14.7,19.475-20.671c3.136-2.445,6.778-4.881,9.422-8.061c2.631-3.165,3.742-1.382,4.798,1.035
		c1.525,3.495,1.951,7.281,2.626,10.993c0.174,0.954,0.09,1.93,1.516,2.07c1.325,0.13,1.983-0.7,2.106-1.601
		c0.976-7.152,7.237-11.096,10.269-17.023c1.845-3.608,4.651-6.754,7.21-9.961c2.66-3.333,4.077-2.972,5.54,1.128
		c0.759,2.126,0.613,4.595,3.042,7.078c1.593-9.612,9.445-13.959,15.068-20.103c1.322-1.445,2.861-2.729,4.443-3.893
		c4.516-3.318,9.1-6.586,13.828-1.699c-3.878,4.938-7.874,9.993-10.452,16.196c-2.381,5.728-1.664,12.145-4.35,17.699
		c-4.745,9.809-9.084,19.889-14.764,29.136c-2.497,4.065-5.621,7.86-7.788,12.231c-2.384,4.808-6.503,8.873-6.199,14.835
		c0.047,0.931-0.301,2.014-0.8,2.82c-7.455,12.079-11.688,25.626-17.588,38.411c-3.646,7.899-8.283,15.188-14.356,21.96
		c3.555,1.387,6.266-0.074,8.957-1.428c2.634-1.323,5.204-2.775,7.83-4.116c1.135-0.58,2.372-1.489,3.592-0.276
		c1.292,1.282,0.034,2.517-0.436,3.583c-6.179,14.017-10.671,28.714-12.805,43.71c-1.81,12.719-0.865,25.867-0.673,38.818
		c0.191,12.845-1.468,25.156-7.243,36.822c-3.658,7.391-6.548,15.154-10.827,22.417c6.644,0.638,7.19,1.914,3.82,7.421
		c-5.656,9.245-10.437,18.992-14.573,28.95c-4.518,10.875-5.479,22.754-7.694,34.261c-1.675,8.701-2.737,17.603-5.326,26.03
		c-3.187,10.368-6.741,20.737-12.52,30.085c-1.001,1.619-1.96,3.02-0.678,4.883c0.7,1.016,0.64,2.091,0.279,3.277
		c-4.553,14.947-10.184,29.507-15.791,44.074c-2.283,5.933-1.069,8.483,5.281,9.517c5.21,0.849,10.512,0.673,15.755,0.255
		c13.573-1.083,26.826,1.777,40.228,2.877c21.146,1.735,42.327,2.028,63.471-0.878c6.804-0.937,13.784-0.531,20.659-1.06
		c3.866-0.299,8.033-0.534,10.062-4.874c8.304-4.851,17.461-3.971,26.489-3.926c6.844,0.036,13.718-0.458,20.49,1.011
		c8.73,1.894,17.682,1.926,26.096-0.351c7.687-2.08,15.25-2.662,23.028-2.643c1.645,0.006,3.312,0.166,4.931-0.044
		c12.027-1.568,24.091-1.796,36.05,0.135c8.955,1.445,18.034,1.604,26.936,3.059c9.498,1.55,19.067,1.376,28.383,0.425
		c8.261-0.844,16.662-1.161,24.745-1.088c9.468,0.085,19.131,0.849,28.682,1.312c19.805,0.96,39.648-0.321,59.497,0.959
		c14.43,0.932,28.97,0.186,43.459,0.179c1.931,0,3.946,0.368,5.571-1.143c9.074,1.141,17.929,0.086,26.854-1.84
		c18.861-4.07,37.651-9.49,57.227-3.184c5.325,1.715,10.78-3.589,9.516-8.684c-1.604-6.465-4.655-12.512-8.021-18.169
		c-4.554-7.648-10.816-14.329-14.961-22.158c-4.788-9.045-10.147-17.62-16.223-25.774c-5.574-7.479-8.571-15.791-9.304-25.032
		c-0.156-1.975-0.943-3.637,2.095-4.346c3.259-0.761,1.34-2.978,0.133-3.919c-2.477-1.931-3.566-4.625-4.987-7.189
		c-0.692-1.253-0.661-1.569,0.821-2.353c5.46-2.882,10.76-6.076,16.038-9.287c1.509-0.919,2.884-2.163,4.067-3.482
		c1.068-1.191,1.813-2.626-0.918-2.887c-4.766-0.453-7.369-3.96-10.013-7.335c-6.656-8.499-10.239-18.653-15.151-28.095
		c-1.431-2.752,0.129-3.685,2.091-4.291c4.022-1.247,3.676-3.185,1.955-6.441c-4.748-8.983-9.138-18.16-13.532-27.323
		c-0.722-1.504-2.116-3.658-0.361-4.938c1.385-1.01,3.046,0.803,4.318,1.667c11.564,7.855,24.065,14.021,36.657,19.925
		c11.872,5.567,24.112,11.187,37.192,12.193c16.092,1.238,32.946,4.326,47.455-6.877c0.736-0.57,1.857-0.621,2.762-1.001
		c7.575-3.179,13.471-8.028,16.009-16.188c1.072-3.447,1.931-6.978,3.262-10.319c1.274-3.198,1.007-6.004-0.722-8.895
		c-2.734-4.571-4.152-9.384-4.158-14.899c-0.008-7.192-0.815-14.358-3.234-21.331c-1.465-4.225-6.455-4.572-8.135-8.652
		c-0.351-0.854-0.771,4.188-3.484,4.648c-0.276,0.048-0.542,0.167-0.991,0.31c-2.031-6.034-6.143-10.772-9.857-15.767
		c-4.327-5.823-9.328-11.055-14.439-16.171c-2.916-2.919-2.711-4.248,1.41-5.748c15.475-5.637,31.576-8.873,47.441-13.041
		c8.703-2.286,17.692-4.798,23.939-11.81c8.321-9.341,8.291-21.405,7.99-32.799c-0.126-4.68-0.324-8.446,2.396-12.284
		c2.958-4.177,4.513-8.983,6.109-13.853c2.362-7.202,1.923-14.889,4.097-21.957c5.469-17.792-2-31.695-11.651-45.627
		c-5.457-7.879-13.897-11.385-21.117-16.344c-10.322-7.088-21.654-12.865-32.727-18.919c-10.561-5.775-22.185-8.957-32.444-15.643
		c-11.662-7.601-15.11-19.307-18.825-30.921c-1.836-5.734-2.744-11.998-3.952-18.044c-0.412-2.064,0.388-4.057-0.692-6.201
		c-3.324-6.595-6.715-12.975-11.554-18.754c-4.411-5.269-10.609-8.543-13.941-15.283c-2.706-5.478-8.959-8.949-12.615-14.468
		c-7.769-11.719-20.03-17.706-32.434-23.059c-12.387-5.344-23.578-12.907-34.923-19.862c-10.994-6.742-19.947-16.853-29.646-25.651
		c-5.948-5.395-11.642-12.12-19.108-14.199c-9.911-2.76-19.236-6.725-28.179-11.223c-13.13-6.604-26.366-10.087-40.957-7.76
		c-3.902-0.772-7.735,0.116-11.458,0.917c-5.753,1.239-11.864,1.012-17.221,3.964c-12.714-0.017-25.677,0.548-36.412,7.789
		c-10.243,6.907-21.918,9.831-32.821,14.816c-1.664,0.761-3.458,0.886-5.277,1.042c-4.397,0.379-4.755,1.381-2.126,5.135
		c3.564,5.092,8.391,8.858,13.41,12.312c4.173,2.872,6.926,6.958,10.176,10.631c0.373,0.421,0.687,1.287,0.502,1.728
		c-0.375,0.896-1.179,0.407-1.975,0.385c-3.829-0.106-5.818-3.048-8.5-4.971c-6.928-4.964-11.523-12.412-18.552-17.257
		c-2.278-1.57-2.93-4.318-4.325-6.507c-3.311-5.2-8.157-8.348-13.38-11.259c-12.224-6.815-25.502-11.001-38.47-15.994
		c-3.562-1.371-6.653-3.942-10.02-5.856c-1.051-0.598-2.204-2.403-3.346,0.314c-1.904,4.525-5.928,4.468-9.569,3.011
		c-5.021-2.01-9.738-1.533-14.883-0.561c-11.583,2.187-22.983,2.44-34.015-3.482c-7.398-3.971-15.649-4.843-24.144-2.051
		c6.453,2.149,12.973,4.013,17.083,10.637c-20.186-3.468-39.314,2.061-59.285,2.121c1.363,3.034,5.203,2,4.5,5.18
		c-0.544,2.46-2.757,3.321-4.595,4.723c-10.284,7.841-20.941,15.348-28.134,26.481c-3.227,4.995-7.643,9.669-9.258,15.156
		c-2.474,8.403-6.858,15.652-11.614,22.513c-9.621,13.882-19.538,27.598-30.913,40.194c-5.721,6.337-12.51,11.274-19.632,15.515
		c-7.274,4.331-14.162,9.521-22.352,12.286c-1.917,0.647-4.074,1.404-4.887,3.75c2.604,2.123,7.8-0.454,8.393,3.057
		c0.355,2.11-3.913,4.7-5.324,7.47c-2.89,5.675-5.198,11.644-7.86,17.439c-1.223,2.661-2.716,5.199-4.086,7.792
		c0-83.263,0.026-166.527-0.095-249.79c-0.005-3.38,0.664-4.044,4.044-4.043c203.715,0.104,407.431,0.094,611.147,0.094
		c-3.585,4.428-9.116,5.382-13.959,6.159c-11.979,1.92-24.152,2.492-36.203,4.2c-5.525,0.783-10.083,3.099-15.001,5.042
		c-8.515,3.366-15.101,9.482-22.2,14.9c-1.474,1.126-3.051,3.344-5.049,2.2c-1.771-1.013-1.472-3.521-1.518-5.48
		c-0.071-3.035-0.02-6.073-0.02-9.073c-1.437-0.33-2,0.698-2.657,1.287c-7.873,7.052-14.324,15.314-20.343,23.953
		c-5.232,7.511-11.806,13.613-19.525,18.557c-1.518,0.971-5.193,2.791-0.87,4.655c8.995,3.878,17.331,9.424,27.229,11.082
		c5.5,0.92,9.995,3.887,14.557,6.861c6.768,4.407,11.633,10.886,17.793,15.872c5.389,4.362,10.812,8.858,16.048,13.275
		c5.312,4.482,11.027,8.387,16.428,12.705c2.145,1.714,3.826,3.9,6.548,5.09c18.499,8.083,36.558,16.957,51.719,30.685
		c3.076,2.786,5.44,5.999,7.191,9.843c2.821,6.192,7.749,10.933,12.119,16.026c0.945,1.101,2.174,2.169,3.855,1.305
		c1.028-0.528,0.926-1.375,0.813-2.483c-0.729-7.171,4.686-11.076,11.458-8.335c3.282,1.328,5.713,3.582,7.782,6.52
		c4.418,6.273,8.736,12.607,12.513,19.311c0.655-13.365-3.268-24.522-14.388-32.373c-0.936-0.66-1.739-1.501-2.642-2.212
		c-2.76-2.171-3.258-4.557-1.127-7.031c13.497,5.219,23.35,14.72,31.988,26.202c-0.085-12.249-7.136-20.91-13.165-30.607
		c2.156,0,3.308-0.071,4.445,0.016c2.073,0.159,2.902-0.704,1.846-2.545c-5.211-9.073-1.236-19.09-2.999-28.513
		c-0.353-1.887,0.597-3.026,2.526-1.73c3.763,2.523,3.979-0.27,3.703-2.649c-0.392-3.398-1.199-6.781-2.162-10.073
		c-0.709-2.429-0.548-3.623,2.281-2.692c3.062,1.008,2.606-0.859,2.035-2.522c-2.438-7.098-4.214-14.293-4.952-21.816
		c-0.294-2.987,0.169-6.544-0.938-8.854c-3.808-7.948-9.689-14.584-15.944-20.798c-1.674-1.663-5.405-2.024-5.029-4.765
		c0.426-3.113,4.135-2.427,6.467-3.304c0.222-0.084,0.312-0.52,0.625-1.077c-1.713-0.885-3.418-1.77-5.127-2.651
		c-4.054-2.089-8.009-4.491-10.703-8.159c-3.57-4.859-7.824-8.816-12.829-12.081c-1.391-0.907-3.794-1.303-2.904-3.812
		c0.721-2.037,1.903-3.848,4.312-4.319c1.771-0.348,3.775,0.052,5.959-1.958c-4.621-0.625-7.79-3.869-11.62-3.916
		c-4.62-0.056-8.066-2.304-11.841-4.135c-2.455-1.192-3.848-2.899-2.704-5.783c52.645,0,105.291,0.039,157.936-0.091
		c3.304-0.008,4.081,0.554,4.081,4.004c-0.106,260.922-0.108,521.846,0.006,782.77c0.002,3.67-0.889,4.241-4.339,4.239
		C525.902,792.885,265.144,792.881,4.385,793c-3.959,0.002-4.407-1.179-4.405-4.665C0.07,612.138,0.059,435.94,0.059,259.743z"/>
	<path fill-rule="evenodd" clip-rule="evenodd" fill="#010101" d="M628.978,2.055c-1.144,2.884,0.249,4.591,2.704,5.783
		c3.774,1.831,7.221,4.08,11.841,4.135c3.83,0.046,6.999,3.291,11.62,3.916c-2.184,2.01-4.188,1.609-5.959,1.958
		c-2.409,0.472-3.592,2.282-4.312,4.319c-0.89,2.51,1.514,2.905,2.904,3.812c5.005,3.265,9.259,7.222,12.829,12.081
		c2.694,3.668,6.649,6.069,10.703,8.159c1.709,0.881,3.414,1.766,5.127,2.651c-0.312,0.557-0.403,0.993-0.625,1.077
		c-2.332,0.877-6.041,0.191-6.467,3.304c-0.376,2.74,3.355,3.102,5.029,4.765c6.255,6.214,12.137,12.85,15.944,20.798
		c1.106,2.31,0.644,5.867,0.938,8.854c0.738,7.522,2.515,14.718,4.952,21.816c0.571,1.663,1.026,3.531-2.035,2.522
		c-2.829-0.931-2.99,0.263-2.281,2.692c0.963,3.292,1.771,6.674,2.162,10.073c0.275,2.379,0.06,5.172-3.703,2.649
		c-1.93-1.296-2.879-0.157-2.526,1.73c1.763,9.423-2.212,19.44,2.999,28.513c1.057,1.841,0.228,2.704-1.846,2.545
		c-1.138-0.087-2.289-0.016-4.445-0.016c6.029,9.697,13.08,18.358,13.165,30.607c-8.639-11.481-18.491-20.983-31.988-26.202
		c-2.131,2.474-1.633,4.859,1.127,7.031c0.902,0.711,1.706,1.552,2.642,2.212c11.12,7.851,15.043,19.008,14.388,32.373
		c-3.776-6.703-8.095-13.038-12.513-19.311c-2.069-2.938-4.5-5.191-7.782-6.52c-6.772-2.741-12.187,1.164-11.458,8.335
		c0.112,1.108,0.215,1.955-0.813,2.483c-1.682,0.865-2.91-0.204-3.855-1.305c-4.37-5.094-9.298-9.834-12.119-16.026
		c-1.751-3.844-4.115-7.058-7.191-9.843c-15.161-13.728-33.22-22.602-51.719-30.685c-2.722-1.19-4.403-3.376-6.548-5.09
		c-5.4-4.318-11.116-8.223-16.428-12.705c-5.236-4.417-10.659-8.913-16.048-13.275c-6.16-4.986-11.025-11.465-17.793-15.872
		c-4.562-2.974-9.057-5.94-14.557-6.861c-9.897-1.658-18.233-7.204-27.229-11.082c-4.323-1.864-0.647-3.684,0.87-4.655
		c7.72-4.944,14.293-11.046,19.525-18.557c6.019-8.639,12.47-16.901,20.343-23.953c0.657-0.588,1.221-1.616,2.657-1.287
		c0,3-0.052,6.038,0.02,9.073c0.046,1.96-0.253,4.467,1.518,5.48c1.998,1.144,3.575-1.074,5.049-2.2
		c7.1-5.418,13.686-11.534,22.2-14.9c4.918-1.944,9.476-4.26,15.001-5.042c12.051-1.708,24.225-2.28,36.203-4.2
		c4.843-0.776,10.374-1.73,13.959-6.159C619.763,2.055,624.37,2.055,628.978,2.055z"/>
	<path fill-rule="evenodd" clip-rule="evenodd" fill="none" d="M297.361,209.126c4.917-0.947,8.754,2.59,13.266,3.183
		c3.249,0.428,6.452,1.345,9.785,0.987c1.149-0.123,2.052,0.492,2.229,1.501c0.235,1.348-0.757,2.208-1.996,2.305
		c-1.623,0.127-3.3,0.124-4.9-0.146c-3.603-0.606-7.15-0.892-10.762,0.018c-1.232,0.31-2.645,0.303-3.899,0.058
		c-10.912-2.128-18.078,0.853-22.732,10.776c-4.583,9.771-12.536,17.063-18.036,26.156c-2.476,4.094-2.287,8.986-5.831,12.781
		c-7.581,8.119-14.78,16.517-25.031,21.465c-0.587,0.284-1.104,0.842-1.708,0.942c-10.943,1.81-19.818,9.05-30.528,11.61
		c-2.479,0.593-4.8-0.064-5.35-1.196c-0.977-2.006,1.727-2.52,3.11-3.546c8.197-6.083,17.855-8.579,27.265-11.982
		c9.863-3.566,18.53-9.681,25.118-18.232c3.978-5.163,6.664-11.117,9.938-16.561c4.132-6.869,5.936-15.689,13.712-20.394
		c2.915-1.763,3.049-6.006,4.357-8.993c2.992-6.827,8.275-8.837,14.665-9.826C292.464,209.657,294.917,209.424,297.361,209.126z"/>
	<path fill-rule="evenodd" clip-rule="evenodd" fill="#010101" d="M561.854,778.91c-0.555-1.364-1.911-1.725-3.023-2.366
		c-3.192-1.84-3.834-4.486-1.776-7.353c2.133-2.969,2.58-7.004,4.275-9.461c4.71-6.83,2.872-14.563,5.009-21.407
		c4.087-13.068,1.35-25.343-0.76-38.06c-2.277-13.719-9.003-25.64-13.854-38.323c-0.222-0.581-0.815-1.062-0.291-1.801
		c0.239-0.097,0.519-0.294,0.809-0.31c1.967-0.115,3.037,3.637,5.425,1.406c2.229-2.085,2.538-4.861,2.044-7.745
		c-1.488-8.695-4.717-16.676-8.912-24.463c-3.338-6.2-5.455-13.059-8.139-19.614c-0.53-1.3-1.103-2.767,0.88-3.053
		c5.955-0.856,4.954-5.314,4.264-8.901c-1.377-7.144-1.097-13.758,2.307-20.44c2.771-5.439,4.037-11.479,8.168-16.462
		c2.997-3.615,7.08-5.683,10.164-9.015c-0.995-1.448-2.029-2.722-3.588-3.405c-15.417-6.756-30.263-14.785-46.243-20.296
		c-10.558-3.642-21.116-2.946-31.764-1.013c-2.708,0.49-5.406,1.167-8.01,2.046c-2.295,0.774-3.986-0.264-5.221-1.695
		c-1.601-1.855,0.409-3.658,0.821-5.471c0.512-2.241,2.118-1.505,3.81-1.454c7.397,0.225,14.808,0.226,22.209,0.098
		c4.787-0.082,9.357,0.816,14.004,1.839c23.643,5.208,44.162,17.501,65.302,28.418c15.417,7.961,29.479,18.593,46.518,23.391
		c6.123,1.724,10.794,6.866,17.241,7.939c8.862,1.476,16.87,6.025,25.848,7.039c1.292,0.146,2.574,0.473,3.866,0.504
		c10.524,0.246,21.253-0.012,31.112-3.325c7.452-2.505,15.369-5.218,21.457-10.959c3.73-3.519,6.646-16.345,4.571-20.772
		c-1.531-3.264-7.709-3.348-9.892,0.7c-4.783,8.874-13.539,11.116-21.686,14.582c-6.615,2.816-13.516,4.525-20.604,5.676
		c-1.669,0.271-2.872-0.3-4.216-0.7c-17.414-5.178-33.918-12.578-49.793-21.282c-6.725-3.688-13.257-7.91-19.166-12.952
		c-1.719-1.467-3.628-2.982-5.717-3.7c-8.511-2.926-16.14-7.795-23.845-12.081c-6.073-3.38-12.139-7.471-17.912-11.742
		c-12.637-9.347-23.695-20.577-36.933-29.268c-9.628-6.321-19.977-11.025-29.92-16.602c-0.569-0.318-1.145-0.706-1.765-0.841
		c-13.844-2.997-24.665-11.521-35.832-19.459c-5.437-3.865-10.691-7.939-15.438-12.614c-4.256-4.192-3.888-4.549,0.919-7.689
		c9.829-6.427,20.134-4.913,30.468-2.273c16.559,4.23,33.256,7.832,49.705,12.617c10.865,3.162,22.402,4.421,33.01,8.553
		c23.435,9.128,48.138,14.404,71.416,23.889c10.078,4.106,20.496,3.34,30.915,4.412c18.015,1.852,33.611-4.926,50.06-9.048
		c3.819-0.958,7.234-2.813,10.741-4.461c9.021-4.241,19.048-3.445,28.496-5.704c8.639-2.064,21.896-14.906,22.812-23.951
		c0.344-3.4,0.731-6.798,1.173-10.188c0.32-2.446-0.805-3.392-2.486-1.606c-6.605,6.999-16.104,8.936-23.902,13.868
		c-4.457,2.818-10.295,3.901-15.666,4.644c-3.026,0.419-5.937,0.592-8.797,1.85c-8.104,3.566-15.451,0.08-23.04-2.406
		c-11.796-3.866-21.634-11.128-31.862-17.686c-2.473-1.584-4.868-3.838-6.245-6.799c-0.675-1.453-1.128-2.816-0.16-4.146
		c0.995-1.369,2.627-1.438,4.062-1.015c2.665,0.783,5.379,1.575,7.85,2.807c2.631,1.312,4.993,1.064,6.578-1.084
		c1.551-2.103,1.076-4.707-0.27-6.964c-3.44-5.761-9.82-7.59-16.119-4.663c-7.032,3.266-7.806,2.718-10.627-4.703
		c-4.303-11.324-4.519-23.073-3.71-34.824c0.329-4.789,3.097-8.693,7.039-12.321c8.27-7.612,18.547-8.946,28.603-11.292
		c7.011-1.636,13.312-4.418,18.042-10.022c2.411-2.856,5.492-4.26,9.066-3.908c5.869,0.579,11.288-1.392,16.865-2.458
		c2.955-0.565,5.521-1.984,7.521-4.322c2.671-3.123,5.539-5.965,10.736-6.312c-11.833-7.661-23.115-14.433-35.318-19.516
		c-10.229-4.263-20.098-9.113-29.368-15.279c-5.533-3.681-12.283-5.016-18.09-8.504c-11.796-7.085-24.301-13.022-35.87-20.439
		c-6.702-4.298-12.626-10.055-17.65-16.467c-6.821-8.709-14.013-17.164-20.306-26.242c-4.816-6.951-8.696-14.59-12.567-22.14
		c-1.684-3.282-4.468-5.528-6.622-8.275c-5.369-6.846-8.999-14.642-13.566-21.907c-6.806-10.825-16.402-18.78-26.466-26.391
		c-8.048-6.089-17.378-9.383-26.25-13.762c-6.244-3.083-11.496-8.135-17.354-12.066c-3.668-2.463-6.052-6.677-11.733-6.559
		c-2.702,0.056-5.65-3.55-8.185-5.567c-6.968-5.549-14.734-10.105-21.072-16.447c14.59-2.327,27.826,1.157,40.956,7.76
		c8.942,4.498,18.268,8.463,28.179,11.223c7.467,2.08,13.16,8.804,19.108,14.199c9.698,8.798,18.651,18.909,29.646,25.651
		c11.345,6.955,22.536,14.518,34.923,19.862c12.403,5.353,24.665,11.34,32.434,23.059c3.656,5.519,9.909,8.99,12.615,14.468
		c3.332,6.74,9.53,10.015,13.941,15.283c4.839,5.779,8.229,12.159,11.554,18.754c1.08,2.144,0.28,4.137,0.692,6.201
		c1.208,6.046,2.116,12.311,3.952,18.044c3.715,11.614,7.163,23.321,18.825,30.921c10.26,6.687,21.884,9.868,32.444,15.643
		c11.072,6.054,22.404,11.831,32.727,18.919c7.22,4.959,15.66,8.465,21.117,16.344c9.651,13.932,17.12,27.835,11.651,45.627
		c-2.174,7.068-1.734,14.755-4.097,21.957c-1.597,4.869-3.151,9.676-6.109,13.853c-2.72,3.838-2.521,7.604-2.396,12.284
		c0.301,11.394,0.331,23.458-7.99,32.799c-6.247,7.012-15.236,9.523-23.939,11.81c-15.865,4.168-31.967,7.404-47.441,13.041
		c-4.121,1.5-4.326,2.829-1.41,5.748c5.111,5.116,10.112,10.348,14.439,16.171c3.715,4.994,7.826,9.732,9.857,15.767
		c0.449-0.143,0.715-0.262,0.991-0.31c2.713-0.461,3.134-5.502,3.484-4.648c1.68,4.08,6.67,4.428,8.135,8.652
		c2.419,6.973,3.227,14.139,3.234,21.331c0.006,5.516,1.424,10.328,4.158,14.899c1.729,2.891,1.996,5.696,0.722,8.895
		c-1.331,3.342-2.189,6.872-3.262,10.319c-2.538,8.16-8.434,13.01-16.009,16.188c-0.904,0.38-2.025,0.431-2.762,1.001
		c-14.509,11.203-31.363,8.115-47.455,6.877c-13.08-1.007-25.32-6.626-37.192-12.193c-12.592-5.904-25.093-12.069-36.657-19.925
		c-1.272-0.864-2.934-2.677-4.318-1.667c-1.755,1.28-0.36,3.435,0.361,4.938c4.395,9.163,8.784,18.34,13.532,27.323
		c1.721,3.257,2.067,5.194-1.955,6.441c-1.962,0.606-3.521,1.539-2.091,4.291c4.912,9.441,8.495,19.596,15.151,28.095
		c2.644,3.375,5.247,6.882,10.013,7.335c2.731,0.261,1.986,1.695,0.918,2.887c-1.184,1.319-2.559,2.563-4.067,3.482
		c-5.278,3.211-10.578,6.405-16.038,9.287c-1.482,0.783-1.514,1.1-0.821,2.353c1.421,2.564,2.511,5.259,4.987,7.189
		c1.207,0.941,3.126,3.158-0.133,3.919c-3.038,0.709-2.251,2.371-2.095,4.346c0.732,9.241,3.729,17.554,9.304,25.032
		c6.075,8.154,11.435,16.729,16.223,25.774c4.145,7.829,10.407,14.51,14.961,22.158c3.365,5.657,6.416,11.704,8.021,18.169
		c1.265,5.095-4.19,10.398-9.516,8.684c-19.575-6.307-38.365-0.887-57.227,3.184C579.783,778.996,570.929,780.051,561.854,778.91z
		 M621.055,203.405c-3.992-0.52-5.949,1.943-7.415,5.091c-2.546,5.476-3.288,11.036-1.857,13.095
		c1.897-6.332,3.616-12.823,9.326-17.172c5.578-2.463,11.177-2.894,16.812-0.196c9.909,3.443,14.554,12.051,19.705,20.14
		c1.996,3.132,3.797,6.362,1.091,10.225c3.946-2.057,4.799-4.803,2.882-8.504c-1.12-2.166-1.885-4.516-3.011-6.679
		c-4.218-8.097-9.811-14.576-19.504-16.043C633.066,200.286,627.057,200.134,621.055,203.405z M675.096,533.743
		c-7.292-5.028-13.751-10.642-17.767-18.639c-2.42-4.822-5.037-9.546-7.441-14.374c-1.194-2.392-2.496-4.661-4.791-6.112
		c-4.521-2.858-7.938-6.844-11.193-10.958c-1.674-2.114-3.514-4.398-5.938-5.007c-8.083-2.025-14.742-6.93-22.183-10.206
		c-5.947-2.618-11.963-5.896-18.242-6.773c-10.799-1.512-20.536-5.964-30.701-9.149c-9.25-2.896-18.083-7.066-27.759-8.693
		c-2.41-0.406-4.663-0.582-7.118-0.249c0.496,2.164,2.093,2.32,3.373,2.957c4.405,2.19,9.114,4.266,12.268,7.995
		c5.136,6.073,10.573,10.925,18.479,13.525c7.006,2.304,12.379,7.935,18.021,12.77c5.242,4.489,10.374,8.884,11.67,16.185
		c0.113,0.638,1.114,1.086,1.622,1.69c3.466,4.129,9.658,4.675,12.742,8.745c4.924,6.502,10.331,11.693,17.148,16.563
		c7.94,5.674,17.059,11.98,19.905,22.858c0.202,0.779,0.6,2.08,1.894,1.898c1.396-0.195,1.817-1.331,1.727-2.563
		c-0.243-3.301,1.435-6.346,1.072-9.707c-0.309-2.879,1.933-3.795,4.305-4.465c2.979-0.841,2.815,1.897,3.29,3.185
		c1.001,2.715,1.87,5.488,2.322,8.447c1.12,7.333,4.709,13.729,8.813,19.806c0.966,1.431,2.634,1.885,4.238,2.276
		c8.378,2.047,17.007,2.788,25.321,0.932c18.796-4.199,25.657-9.423,26.811-28.281c0.694-11.37-3.595-20.795-9.508-29.787
		c-6.123-9.308-13.791-17.295-21.629-25.205c-3.626-3.658-7.171-3.618-11.573-3.781c-8.546-0.316-17.134,2.867-25.67-0.666
		c-4.53-1.875-9.417-1.182-14.682,0.06c1.32,1.871,3.138,3.038,4.76,4.431c7.32,6.289,14.201,13.184,18.512,21.796
		c4.008,8.005,8.172,15.604,15.026,21.534C674.17,528.47,675.937,530.552,675.096,533.743z M452.812,428.244
		c0.621,4.556,3.183,6.65,5.618,8.847c13.537,12.204,29.811,20.348,45.218,29.631c13.152,7.925,26.294,15.871,38.33,25.283
		c9.909,7.752,19.994,15.297,29.928,23.019c6.876,5.343,14.75,9.194,22.815,12.724c6.384,2.792,12.353,6.551,19.099,8.611
		c0.745,0.228,1.738,0.758,1.968,1.385c1.868,5.105,6.574,7.199,10.598,9.873c2.084,1.387,4.487,5.139,6.987,2.623
		c2.034-2.049-2.188-3.75-2.91-5.997c-0.342-1.057-1.098-1.988-1.715-2.945c-0.69-1.072-1.062-3.108-2.396-2.847
		c-5.986,1.177-9.014-3.457-13.191-6.023c-3.543-2.181-7.072-4.055-8.578-8.269c-0.293-0.817-0.858-2.091-2.108-1.378
		c-5.533,3.153-9.134-1.082-12.37-3.911c-4.262-3.729-8.721-8.087-6.242-15.257c-1.439,0-2.748-0.09-4.041,0.015
		c-10.391,0.829-18.525-3.897-25.803-10.575c-2.424-2.226-4.96-4.251-7.625-6.174c-6.259-4.514-8.819-10.64-5.915-15.819
		c1.919-3.425,0.926-5.356-1.4-7.589c-4.815-4.621-9.3-9.63-15.099-13.104c-5.124-3.071-9.897-6.95-15.197-9.422
		c-8.172-3.812-16.952-6.312-25.67-8.938C473.111,428.992,463.139,429.702,452.812,428.244z M581.602,495.95
		c0.014-1.617-0.989-2.683-1.982-3.799c-7.788-8.773-17.619-14.72-27.739-20.33c-4.343-2.408-5.947,1.753-8.155,3.44
		c-1.632,1.247,0.584,3.449,1.915,4.792c4.63,4.678,10.6,7.557,15.791,11.503c4.097,3.116,8.048,6.714,13.203,8.245
		C577.87,500.763,581.522,498.763,581.602,495.95z M722.072,523.336c-0.216,3.436-0.101,5.535-0.071,7.428
		c0.073,4.646-1.35,9.038-1.543,13.607c-0.056,1.36-0.401,2.7,0.588,3.646c1.535,1.464,2.13-0.676,3.198-1.085
		c4.428-1.698,7.538-3.835,3.312-8.82c-0.303-0.355-0.033-1.223,0.022-1.848C728.009,531.408,724.919,528.201,722.072,523.336z
		 M745.432,343.051c8.47,2.375,16.599-2.094,24.61,1.601c-2.188-6.528-3.444-7.145-9.136-6.132
		c-2.702,0.481-5.354,1.248-8.194,1.309C750.272,339.881,747.553,340.374,745.432,343.051z M589.143,506.65
		c-0.936,0.058-2.035,1.138-1.298,3.417c0.819,2.543,8.438,8.229,11.016,8.304c1.115,0.032,2.342,0.188,2.407-1.575
		C601.374,513.914,593.561,506.485,589.143,506.65z M636.869,217.733c1.296,1.761-0.685,5.863,3.074,6.16
		c2.453,0.195,3.614-2.806,3.537-5.007c-0.095-2.681-1.651-5.169-4.667-5.255C636.632,213.569,636.946,215.797,636.869,217.733z
		 M619.46,531.94c-2.206-3.353-4.718-6.302-8.997-6.777C613.595,527.262,615.051,531.533,619.46,531.94z M626.997,238.675
		c-3.096-3.009-6.847-4.867-10.853-6.272C619.037,235.766,622.712,237.755,626.997,238.675z M649.353,559.653
		c-0.41-3.226-0.987-5.426-2.948-6.975c-0.517-0.407-1.44,0.221-1.402,0.829C645.145,555.849,646.169,557.743,649.353,559.653z"/>
	<path fill-rule="evenodd" clip-rule="evenodd" fill="#010101" d="M427.859,302.178c-1.481-0.001-3.059,0.327-4.421-0.075
		c-2.575-0.76-6.74,2.345-7.076,0.136c-0.575-3.763-0.936-8.368,2.011-11.929c3.384-4.089,4.814-9.381,7.604-13.574
		c4.149-6.238,7.51-13.614,14.275-17.633c3.161-1.877,5.337-4.75,8.52-6.497c14.125-7.749,28.068-3.896,39.843,7.07
		c6.104,5.685,9.359,13.43,15.008,19.386c1.107,1.167,0.849,1.972-0.764,2.397c-2.202,0.58-4.351,1.408-6.574,1.869
		c-5.774,1.196-10.073,4.602-14.787,8.006c-6.75,4.875-14.092,9.654-23.582,8.199c-2.372-0.363-1.557-3.961-4.006-2.685
		c-1.667,0.87,0.465,4.315-2.716,4.439C443.412,301.447,435.578,300.308,427.859,302.178z M471.792,273.747
		c-1.038-2.883-0.357-6.167-2.59-8.405c-1.686-1.685-3.021-4.67-5.522-4.374c-2.626,0.312-1.704,3.68-2.609,5.589
		c-0.611,1.29-0.744,2.803-1.097,4.216c-1.358,5.448,0.218,8.831,5.023,11.083c1.149,0.539,2.621,0.95,3.032-0.158
		C469.068,278.89,471.616,276.78,471.792,273.747z"/>
	<path fill-rule="evenodd" clip-rule="evenodd" fill="#FFFFFF" d="M411.753,72.255c5.356-2.952,11.468-2.725,17.221-3.964
		c3.723-0.801,7.556-1.689,11.459-0.917c6.338,6.342,14.104,10.898,21.072,16.447c2.534,2.017,5.482,5.624,8.185,5.567
		c5.682-0.118,8.065,4.096,11.733,6.559c5.857,3.931,11.109,8.983,17.354,12.066c8.872,4.378,18.202,7.673,26.25,13.762
		c10.063,7.611,19.66,15.566,26.466,26.391c4.567,7.265,8.197,15.062,13.566,21.907c2.154,2.748,4.938,4.993,6.622,8.275
		c3.871,7.55,7.751,15.189,12.567,22.14c6.293,9.078,13.484,17.533,20.306,26.242c5.024,6.412,10.948,12.169,17.65,16.467
		c11.569,7.417,24.074,13.354,35.87,20.439c5.807,3.488,12.557,4.823,18.09,8.504c9.271,6.167,19.14,11.017,29.368,15.279
		c12.203,5.083,23.485,11.854,35.318,19.516c-5.197,0.347-8.065,3.188-10.736,6.312c-2,2.338-4.566,3.757-7.521,4.322
		c-5.577,1.066-10.996,3.037-16.865,2.458c-3.574-0.352-6.655,1.051-9.066,3.908c-4.73,5.604-11.031,8.386-18.042,10.022
		c-10.056,2.347-20.333,3.68-28.603,11.292c-3.942,3.628-6.71,7.532-7.039,12.321c-0.809,11.751-0.593,23.5,3.71,34.824
		c2.821,7.42,3.595,7.968,10.627,4.703c6.299-2.927,12.679-1.098,16.119,4.663c1.346,2.257,1.82,4.861,0.27,6.964
		c-1.585,2.148-3.947,2.396-6.578,1.084c-2.471-1.231-5.185-2.023-7.85-2.807c-1.435-0.423-3.066-0.354-4.062,1.015
		c-0.968,1.329-0.515,2.692,0.16,4.146c1.377,2.961,3.772,5.215,6.245,6.799c10.229,6.558,20.066,13.819,31.862,17.686
		c7.589,2.486,14.937,5.973,23.04,2.406c2.86-1.258,5.771-1.431,8.797-1.85c5.371-0.742,11.209-1.825,15.666-4.644
		c7.799-4.933,17.297-6.869,23.902-13.868c1.682-1.785,2.807-0.84,2.486,1.606c-0.441,3.39-0.829,6.787-1.173,10.188
		c-0.916,9.045-14.173,21.887-22.812,23.951c-9.448,2.259-19.475,1.463-28.496,5.704c-3.507,1.647-6.922,3.503-10.741,4.461
		c-16.448,4.122-32.045,10.899-50.06,9.048c-10.419-1.072-20.837-0.306-30.915-4.412c-23.278-9.484-47.981-14.761-71.416-23.889
		c-10.607-4.132-22.145-5.391-33.01-8.553c-16.449-4.785-33.146-8.387-49.705-12.617c-10.334-2.64-20.639-4.153-30.468,2.273
		c-4.807,3.141-5.175,3.497-0.919,7.689c4.747,4.675,10.002,8.749,15.438,12.614c11.167,7.938,21.988,16.462,35.832,19.459
		c0.62,0.135,1.195,0.522,1.765,0.841c9.943,5.576,20.292,10.28,29.92,16.602c13.237,8.69,24.296,19.921,36.933,29.268
		c5.773,4.271,11.839,8.362,17.912,11.742c7.705,4.286,15.334,9.155,23.845,12.081c2.089,0.718,3.998,2.233,5.717,3.7
		c5.909,5.042,12.441,9.265,19.166,12.952c15.875,8.704,32.379,16.104,49.793,21.282c1.344,0.4,2.547,0.972,4.216,0.7
		c7.089-1.15,13.989-2.859,20.604-5.676c8.146-3.466,16.902-5.708,21.686-14.582c2.183-4.048,8.36-3.964,9.892-0.7
		c2.075,4.428-0.841,17.254-4.571,20.772c-6.088,5.741-14.005,8.454-21.457,10.959c-9.859,3.313-20.588,3.571-31.112,3.325
		c-1.292-0.031-2.574-0.357-3.866-0.504c-8.978-1.014-16.985-5.563-25.848-7.039c-6.447-1.073-11.118-6.216-17.241-7.939
		c-17.039-4.798-31.101-15.43-46.518-23.391c-21.14-10.917-41.659-23.21-65.302-28.418c-4.646-1.022-9.217-1.921-14.004-1.839
		c-7.401,0.128-14.812,0.127-22.209-0.098c-1.691-0.051-3.298-0.787-3.81,1.454c-0.412,1.812-2.422,3.615-0.821,5.471
		c1.234,1.432,2.926,2.47,5.221,1.695c2.604-0.879,5.302-1.556,8.01-2.046c10.647-1.934,21.206-2.629,31.764,1.013
		c15.98,5.511,30.826,13.54,46.243,20.296c1.559,0.684,2.593,1.957,3.588,3.405c-3.084,3.332-7.167,5.399-10.164,9.015
		c-4.131,4.983-5.396,11.022-8.168,16.462c-3.403,6.683-3.684,13.297-2.307,20.44c0.69,3.587,1.691,8.045-4.264,8.901
		c-1.982,0.286-1.41,1.753-0.88,3.053c2.684,6.556,4.801,13.414,8.139,19.614c4.195,7.787,7.424,15.768,8.912,24.463
		c0.494,2.884,0.186,5.66-2.044,7.745c-2.388,2.23-3.458-1.521-5.425-1.406c-0.29,0.016-0.569,0.213-0.809,0.31
		c-0.524,0.738,0.069,1.22,0.291,1.801c4.851,12.684,11.576,24.604,13.854,38.323c2.109,12.717,4.847,24.991,0.76,38.06
		c-2.137,6.844-0.299,14.577-5.009,21.407c-1.695,2.457-2.143,6.492-4.275,9.461c-2.058,2.866-1.416,5.513,1.776,7.353
		c1.112,0.642,2.469,1.002,3.023,2.366c-1.625,1.511-3.641,1.143-5.571,1.143c-14.489,0.007-29.029,0.753-43.459-0.179
		c-19.849-1.28-39.692,0.001-59.497-0.959c-9.551-0.463-19.214-1.227-28.682-1.312c-8.083-0.073-16.484,0.244-24.745,1.088
		c-9.315,0.951-18.885,1.125-28.383-0.425c-8.902-1.454-17.981-1.613-26.936-3.059c-11.958-1.931-24.022-1.703-36.05-0.135
		c-1.619,0.21-3.287,0.05-4.931,0.044c-7.778-0.02-15.341,0.562-23.028,2.643c-8.414,2.276-17.366,2.244-26.096,0.351
		c-6.772-1.469-13.646-0.975-20.49-1.011c-9.028-0.045-18.185-0.925-26.489,3.926c-0.042-3.054-1.815-5.19-3.916-7.06
		c-6.967-6.2-13.095-13.116-17.95-21.093c-3.603-5.919-4.217-12.493-3.808-19.24c1.451-5.89,1.389-11.784,0.047-17.681
		c1.951-7.055,3.666-14.188,5.959-21.129c1.066-3.227,0.096-3.735-2.683-3.632c-2.299,0.087-4.606,0.056-6.906-0.039
		c-1.276-0.053-2.099-0.866-2.385-2.117c-0.296-1.296,0.697-1.734,1.594-2.111c10.52-4.42,14.914-14.512,21.175-22.864
		c6.036-8.053,13.229-14.932,21.119-21.126c2.562-2.013,4.882-4.377,7.599-6.139c6.615-4.289,13.735-7.919,20.256-12.15
		c7.015-4.551,14.461-8.2,21.959-10.932c7.195-2.619,14.256-5.127,20.886-8.99c19.016-11.08,32.922-26.736,42.196-46.598
		c0.383-0.819,1.218-1.644,0.577-2.933c-0.85-0.066-1.814-0.171-2.782-0.213c-2.635-0.112-3.185-1.175-1.745-3.433
		c7.788-12.212,10.79-26.086,13.81-39.951c0.633-2.91-0.26-4.212-3.492-4.125c-2.303,0.062-5.863,1.389-6.656-1.373
		c-0.802-2.795,2.193-4.806,4.581-6.271c9.616-5.901,15.527-15.356,22.229-23.873c11.577-14.713,20.566-31.19,30.318-47.141
		c5.974-9.771,12.96-18.941,20.757-27.275c7.323-7.83,17.763-10.966,27.417-15.011c17.156-7.188,35.358-9.99,53.662-12.27
		c6.442-0.803,12.856-1.917,19.321-2.397c4.196-0.312,8.553,0.911,12.671,0.305c8.804-1.296,17.204,1.441,25.823,1.772
		c4.978,0.19,9.193,3.281,13.782,4.917c10.877,3.878,21.471,8.811,32.949,10.438c7.725,1.096,15.715,1.081,23.527,0.6
		c7.996-0.492,13.733-5.667,18.744-11.542c0.877-1.028,0.734-1.979,0.102-3.131c-7.379-13.417-7.486-26.877-0.428-40.513
		c5.549-10.722,1.23-20.517-10.396-24.717c-3.805-1.375-7.646-3.009-10.97-5.265c-3.456-2.345-7.324-3.146-11.051-3.297
		c-4.74-0.191-7.381-2.451-8.976-6.281c-2.646-6.361-6.835-11.803-10.465-17.52c-5.399-8.506-10.774-16.984-18.41-24.081
		c-5.061-4.701-7.897-11.894-11.39-18.16c-6-10.764-11.767-21.657-17.049-32.804c-2.728-5.755-3.032-12.375-6.766-17.766
		c-4.39-6.335-8.607-12.789-12.815-19.247c-3.717-5.701-8.95-10.407-11.095-17.146c-0.994-3.125-4.184-4.423-6.224-6.687
		c-10-11.095-21.771-19.949-34.657-27.642c-7.357-4.394-13.674-10.694-19.973-16.651c-6.82-6.449-14.244-11.928-22.122-16.978
		C420.956,77.583,416.893,74.047,411.753,72.255z M504.533,320.248c3.806-4.259,5.07-9.577,7.234-14.596
		c2.891-6.704,1.381-13.133,0.332-19.674c-0.851-5.303-2.712-10.051-8.295-12.301c-1.707-0.688-2.548-2.348-3.595-3.858
		c-2.886-4.161-6.081-8.107-9.198-12.108c-8.996-11.556-22.472-15.654-36.371-10.808c-11.746,4.096-21.538,11.267-28.848,21.191
		c-7.291,9.898-14.226,20.075-15.249,33.16c-0.35,4.467,0.75,5.382,4.465,4.872c12.347-1.692,24.753-2.599,37.192-1.897
		c10.956,0.617,20.266-3.488,28.661-9.694c5.797-4.285,11.984-7.244,18.828-9.085c7.765-2.089,7.727-2.06,6.93,5.879
		c-0.263,2.606-0.099,5.259-0.054,7.89c0.131,7.488-2.186,14.14-6.789,20.009c-1.988,2.538-4.042,5.025-6.067,7.535
		C498.391,325.989,501.633,323.495,504.533,320.248z M435.235,302.158c-2.446,0.175-4.916,0.024-7.376,0.02
		c-1.481-0.001-3.059,0.327-4.421-0.075c-2.575-0.76-6.74,2.345-7.076,0.136c-0.575-3.763-0.936-8.368,2.011-11.929
		c3.384-4.089,4.814-9.381,7.604-13.574c4.149-6.238,7.51-13.614,14.275-17.633c3.161-1.877,5.337-4.75,8.52-6.497
		c14.125-7.749,28.068-3.896,39.843,7.07c6.104,5.685,9.359,13.43,15.008,19.386c1.107,1.167,0.849,1.972-0.764,2.397
		c-2.202,0.58-4.351,1.408-6.574,1.869c-5.774,1.196-10.073,4.602-14.787,8.006c-6.75,4.875-14.092,9.654-23.582,8.199
		c-2.372-0.363-1.557-3.961-4.006-2.685c-1.667,0.87,0.465,4.315-2.716,4.439C445.966,303.193,440.552,301.778,435.235,302.158z
		 M181.823,733.633c1.451-5.89,1.389-11.784,0.047-17.681C181.854,721.846,181.839,727.74,181.823,733.633z M435.235,302.158
		c5.316-0.38,10.73,1.035,15.959-0.87c-7.782,0.159-15.616-0.98-23.335,0.89C430.319,302.182,432.789,302.333,435.235,302.158z
		 M657.329,515.104c-2.42-4.822-5.037-9.546-7.441-14.374c-1.194-2.392-2.496-4.661-4.791-6.112
		c-4.521-2.858-7.938-6.844-11.193-10.958c-1.674-2.114-3.514-4.398-5.938-5.007c-8.083-2.025-14.742-6.93-22.183-10.206
		c-5.947-2.618-11.963-5.896-18.242-6.773c-10.799-1.512-20.536-5.964-30.701-9.149c-9.25-2.896-18.083-7.066-27.759-8.693
		c-2.41-0.406-4.663-0.582-7.118-0.249c0.496,2.164,2.093,2.32,3.373,2.957c4.405,2.19,9.114,4.266,12.268,7.995
		c5.136,6.073,10.573,10.925,18.479,13.525c7.006,2.304,12.379,7.935,18.021,12.77c5.242,4.489,10.374,8.884,11.67,16.185
		c0.113,0.638,1.114,1.086,1.622,1.69c3.466,4.129,9.658,4.675,12.742,8.745c4.924,6.502,10.331,11.693,17.148,16.563
		c7.94,5.674,17.059,11.98,19.905,22.858c0.202,0.779,0.6,2.08,1.894,1.898c1.396-0.195,1.817-1.331,1.727-2.563
		c-0.243-3.301,1.435-6.346,1.072-9.707c-0.309-2.879,1.933-3.795,4.305-4.465c2.979-0.841,2.815,1.897,3.29,3.185
		c1.001,2.715,1.87,5.488,2.322,8.447c1.12,7.333,4.709,13.729,8.813,19.806c0.966,1.431,2.634,1.885,4.238,2.276
		c8.378,2.047,17.007,2.788,25.321,0.932c18.796-4.199,25.657-9.423,26.811-28.281c0.694-11.37-3.595-20.795-9.508-29.787
		c-6.123-9.308-13.791-17.295-21.629-25.205c-3.626-3.658-7.171-3.618-11.573-3.781c-8.546-0.316-17.134,2.867-25.67-0.666
		c-4.53-1.875-9.417-1.182-14.682,0.06c1.32,1.871,3.138,3.038,4.76,4.431c7.32,6.289,14.201,13.184,18.512,21.796
		c4.008,8.005,8.172,15.604,15.026,21.534c1.951,1.69,3.718,3.772,2.877,6.964C667.804,528.715,661.345,523.102,657.329,515.104z
		 M452.812,428.244c10.326,1.458,20.299,0.748,30.3,3.762c8.718,2.625,17.498,5.125,25.67,8.938
		c5.3,2.472,10.073,6.351,15.197,9.422c5.799,3.475,10.283,8.483,15.099,13.104c2.326,2.232,3.319,4.164,1.4,7.589
		c-2.904,5.18-0.344,11.306,5.915,15.819c2.665,1.923,5.201,3.948,7.625,6.174c7.277,6.678,15.412,11.404,25.803,10.575
		c1.293-0.104,2.602-0.015,4.041-0.015c-2.479,7.17,1.98,11.528,6.242,15.257c3.236,2.829,6.837,7.064,12.37,3.911
		c1.25-0.713,1.815,0.561,2.108,1.378c1.506,4.214,5.035,6.088,8.578,8.269c4.178,2.566,7.205,7.2,13.191,6.023
		c1.333-0.262,1.705,1.774,2.396,2.847c0.617,0.957,1.373,1.889,1.715,2.945c0.723,2.247,4.944,3.948,2.91,5.997
		c-2.5,2.516-4.903-1.236-6.987-2.623c-4.023-2.674-8.729-4.768-10.598-9.873c-0.229-0.627-1.223-1.157-1.968-1.385
		c-6.746-2.061-12.715-5.819-19.099-8.611c-8.065-3.529-15.939-7.381-22.815-12.724c-9.934-7.722-20.019-15.267-29.928-23.019
		c-12.036-9.412-25.178-17.358-38.33-25.283c-15.407-9.283-31.681-17.427-45.218-29.631
		C455.995,434.895,453.434,432.8,452.812,428.244z M581.598,495.953c-0.075,2.81-3.728,4.81-6.964,3.849
		c-5.155-1.531-9.106-5.129-13.203-8.245c-5.191-3.946-11.161-6.825-15.791-11.503c-1.331-1.343-3.547-3.545-1.915-4.792
		c2.208-1.688,3.812-5.849,8.155-3.44c10.12,5.61,19.951,11.557,27.739,20.33C580.612,493.268,581.615,494.333,581.598,495.953z
		 M722.072,523.336c2.847,4.865,5.937,8.072,5.506,12.928c-0.056,0.625-0.325,1.492-0.022,1.848c4.227,4.985,1.116,7.122-3.312,8.82
		c-1.068,0.409-1.663,2.549-3.198,1.085c-0.989-0.945-0.644-2.285-0.588-3.646c0.193-4.569,1.616-8.961,1.543-13.607
		C721.972,528.871,721.856,526.771,722.072,523.336z M639.085,203.361c9.691,1.467,15.284,7.946,19.502,16.043
		c1.126,2.163,1.891,4.513,3.011,6.679c1.917,3.701,1.064,6.447-2.882,8.504c2.706-3.863,0.905-7.093-1.091-10.225
		c-5.151-8.088-9.796-16.697-19.705-20.139C638.308,203.937,638.695,203.648,639.085,203.361z M745.432,343.051
		c2.121-2.677,4.841-3.17,7.28-3.222c2.841-0.061,5.492-0.827,8.194-1.309c5.691-1.013,6.947-0.396,9.136,6.132
		C762.03,340.958,753.901,345.426,745.432,343.051z M589.143,506.65c4.418-0.165,12.231,7.264,12.125,10.146
		c-0.065,1.763-1.292,1.607-2.407,1.575c-2.578-0.074-10.196-5.761-11.016-8.304C587.107,507.788,588.207,506.708,589.143,506.65z
		 M636.869,217.733c0.077-1.937-0.237-4.165,1.944-4.103c3.016,0.085,4.572,2.574,4.667,5.255c0.077,2.202-1.084,5.202-3.537,5.007
		C636.185,223.596,638.165,219.495,636.869,217.733z M621.108,204.419c-5.71,4.349-7.429,10.84-9.326,17.172
		c-1.431-2.059-0.688-7.619,1.857-13.095c1.466-3.148,3.423-5.611,7.415-5.091C621.074,203.743,621.092,204.08,621.108,204.419z
		 M621.108,204.419c-0.017-0.339-0.034-0.676-0.054-1.014c6.002-3.271,12.012-3.119,18.028-0.043
		c-0.388,0.287-0.775,0.575-1.163,0.863C632.285,201.525,626.687,201.956,621.108,204.419z M619.46,531.94
		c-4.409-0.407-5.865-4.679-8.997-6.777C614.742,525.639,617.254,528.588,619.46,531.94z M626.997,238.675
		c-4.285-0.92-7.96-2.909-10.853-6.272C620.15,233.808,623.901,235.666,626.997,238.675z M649.353,559.653
		c-3.184-1.91-4.208-3.805-4.351-6.146c-0.038-0.608,0.886-1.236,1.402-0.829C648.365,554.228,648.942,556.428,649.353,559.653z
		 M471.792,273.747c-0.176,3.033-2.724,5.143-3.763,7.952c-0.411,1.108-1.883,0.697-3.032,0.158
		c-4.806-2.252-6.382-5.635-5.023-11.083c0.353-1.413,0.485-2.926,1.097-4.216c0.905-1.91-0.017-5.278,2.609-5.589
		c2.502-0.296,3.837,2.688,5.522,4.374C471.435,267.579,470.754,270.864,471.792,273.747z"/>
</g>
</svg>
